<?xml version="1.0" standalone="no"?>
<!DOCTYPE svg PUBLIC "-//W3C//DTD SVG 20010904//EN"
 "http://www.w3.org/TR/2001/REC-SVG-20010904/DTD/svg10.dtd">
<svg version="1.0" xmlns="http://www.w3.org/2000/svg"
 width="331.000000pt" height="331.000000pt" viewBox="0 0 331.000000 331.000000"
 preserveAspectRatio="xMidYMid meet">
<metadata>
Created by potrace 1.14, written by Peter Selinger 2001-2017
</metadata>
<g transform="translate(0.000000,331.000000) scale(0.100000,-0.100000)"
fill="#000000" stroke="none">
<path d="M1455 3273 c-75 -10 -166 -56 -215 -110 -49 -52 -54 -87 -23 -146
l14 -28 -33 3 c-47 4 -49 -26 -4 -78 l34 -40 -54 -28 c-51 -27 -72 -54 -59
-76 3 -5 32 -10 64 -10 55 0 59 -2 69 -27 6 -16 13 -74 14 -130 3 -93 1 -103
-19 -125 -31 -32 -32 -107 -3 -133 18 -16 20 -31 20 -124 0 -90 4 -115 25
-166 33 -79 32 -101 -4 -119 -44 -23 -78 -70 -96 -132 -10 -34 -33 -76 -61
-110 -56 -70 -77 -118 -71 -167 5 -38 -17 -250 -28 -267 -13 -20 -37 -9 -93
44 -128 122 -221 176 -302 176 -44 0 -56 -4 -81 -29 -47 -47 -39 -102 56 -406
49 -156 75 -262 75 -304 0 -19 -9 -34 -30 -49 -26 -20 -30 -29 -30 -71 0 -91
70 -525 87 -542 16 -16 955 -12 969 4 7 7 24 48 39 92 16 44 34 92 41 106 7
14 25 68 39 120 l27 94 -21 16 c-27 22 -27 51 -1 74 12 10 30 34 41 52 37 60
49 44 49 -64 0 -54 6 -134 14 -178 12 -77 70 -235 85 -235 25 0 51 60 90 207
18 70 33 80 42 31 11 -57 90 -203 116 -212 7 -3 20 8 29 26 l16 30 43 -90 c24
-49 49 -93 56 -98 18 -11 117 99 154 172 17 32 35 59 40 61 6 2 16 -10 22 -27
6 -16 16 -30 23 -30 14 0 40 61 40 95 0 34 13 31 44 -9 77 -101 131 -21 130
194 0 89 -5 134 -23 199 -23 82 -24 85 -6 117 23 44 15 132 -22 228 -21 55
-24 73 -14 87 24 39 13 83 -38 150 -27 36 -65 78 -85 94 -37 29 -45 52 -25 72
9 9 6 21 -10 49 -12 20 -29 62 -37 93 -18 69 -75 182 -120 238 -42 51 -43 68
-4 82 40 13 38 31 -9 74 -29 26 -38 42 -34 57 7 26 -11 47 -48 55 -16 4 -29
11 -29 16 0 5 16 33 35 61 19 29 40 77 46 107 7 31 20 65 30 76 22 25 34 75
25 109 -3 14 -20 42 -37 61 -23 25 -30 42 -27 60 6 29 -8 44 -66 66 -28 11
-42 23 -44 39 -4 26 31 68 62 72 32 5 33 45 1 78 -23 24 -24 28 -10 40 8 7 15
18 15 25 0 16 -44 35 -81 35 -38 0 -47 22 -20 56 24 30 27 59 9 71 -7 4 -51
26 -98 48 -47 22 -102 50 -123 63 -21 12 -45 22 -52 22 -15 0 -45 -59 -45 -89
0 -27 -16 -44 -36 -37 -11 3 -50 36 -89 74 -38 37 -87 75 -108 85 -63 30 -169
42 -262 30z m723 -179 l42 -17 -33 -31 c-19 -17 -44 -50 -56 -73 -12 -24 -25
-43 -29 -43 -13 1 -49 25 -86 57 -32 29 -36 38 -36 81 0 27 5 63 11 80 l11 31
66 -34 c37 -18 86 -42 110 -51z m-417 -99 c107 -16 156 -30 181 -48 16 -13 78
-123 78 -139 0 -16 -54 0 -175 51 -26 12 -70 26 -120 40 -22 6 -65 18 -95 26
-30 8 -85 18 -123 22 -69 6 -81 11 -69 29 23 34 173 43 323 19z m405 -145 c66
-52 93 -91 94 -132 0 -21 -4 -38 -8 -38 -5 0 -45 21 -90 46 -88 50 -96 65 -72
128 12 34 29 33 76 -4z m-212 -136 c35 -14 27 -131 -12 -161 -24 -20 -32 -16
-32 16 0 32 -34 81 -56 81 -8 0 -14 6 -14 13 0 34 73 67 114 51z m-561 -84
c22 -37 15 -50 -27 -50 -24 0 -38 -7 -49 -22 -8 -13 -18 -20 -23 -16 -8 9 12
86 28 106 19 22 53 14 71 -18z m127 -131 c0 -15 4 -19 16 -15 25 10 121 -55
109 -74 -3 -4 2 -13 10 -20 8 -7 12 -16 9 -21 -10 -16 -43 -9 -54 11 -13 24
-30 26 -30 5 0 -8 6 -15 14 -15 17 0 16 -29 -3 -52 -11 -13 -19 -14 -33 -7
-10 6 -16 15 -12 20 3 6 0 9 -7 7 -8 -1 -29 4 -47 11 -25 10 -36 11 -45 2 -8
-8 -6 -11 7 -11 16 0 17 -6 12 -45 -6 -37 -4 -46 10 -52 9 -3 25 -1 36 6 11 7
21 11 22 9 1 -2 11 -21 22 -43 16 -32 26 -39 44 -37 13 1 28 8 32 15 5 8 8 7
8 -5 0 -10 5 -18 10 -18 20 0 9 -38 -15 -54 -14 -9 -25 -12 -25 -6 0 5 -5 10
-11 10 -6 0 -9 -6 -6 -14 7 -18 -9 -32 -45 -41 -17 -5 -25 -12 -21 -21 4 -11
0 -12 -18 -5 -41 15 -99 -28 -99 -72 l0 -30 -20 23 c-23 27 -25 37 -7 43 7 2
8 8 3 13 -5 5 -11 4 -13 -3 -9 -24 -25 -13 -19 11 3 14 2 28 -4 31 -6 3 -7 17
-4 29 4 19 1 25 -20 30 -25 6 -26 9 -26 81 0 40 5 77 10 80 6 3 10 14 10 25 0
10 7 20 15 24 8 3 15 12 15 21 0 8 5 15 10 15 6 0 10 6 10 13 1 18 100 92 100
73 0 -8 9 -18 20 -21 11 -3 20 -15 20 -26 0 -10 7 -19 15 -19 23 0 18 38 -10
66 -24 24 -32 54 -18 67 13 13 23 7 23 -14z m168 -107 c2 -7 -2 -10 -12 -6 -9
3 -16 11 -16 16 0 13 23 5 28 -10z m33 -42 c-27 -24 -41 -25 -41 -6 0 16 15
24 45 25 19 0 18 -1 -4 -19z m-48 -30 c10 -16 22 -30 27 -30 11 0 28 30 27 45
0 6 7 11 17 13 13 3 16 -1 11 -20 -4 -16 -1 -29 9 -37 12 -10 13 -16 3 -32
-14 -22 -39 -26 -31 -4 4 9 0 15 -10 15 -18 0 -21 -15 -5 -25 6 -4 8 -13 5
-20 -2 -7 0 -17 5 -22 7 -7 5 -12 -5 -16 -9 -4 -16 -2 -16 3 0 6 -13 10 -30
10 -21 0 -30 5 -30 16 0 11 6 14 20 9 14 -4 20 -2 20 9 0 9 -6 13 -13 10 -10
-3 -12 5 -9 30 3 27 -1 37 -17 48 -24 14 -28 28 -8 28 7 0 21 -13 30 -30z
m-123 -14 c0 -18 -15 -36 -30 -36 -18 0 -34 23 -23 34 7 7 53 8 53 2z m30 -42
c0 -9 -5 -14 -12 -12 -18 6 -21 28 -4 28 9 0 16 -7 16 -16z m111 -87 c-1 -12
-15 -9 -19 4 -3 6 1 10 8 8 6 -3 11 -8 11 -12z m-231 -184 c-12 -8 -24 -12
-28 -8 -9 9 28 36 40 29 5 -4 0 -13 -12 -21z m-131 -956 c39 -10 74 -87 86
-184 l6 -58 -288 3 c-158 2 -291 7 -295 10 -3 4 -8 25 -10 46 -3 36 -1 40 27
48 45 14 279 37 372 38 45 0 84 3 86 8 8 12 -5 72 -14 72 -5 0 -14 -11 -19
-25 -9 -24 -12 -25 -112 -25 -57 -1 -148 -8 -203 -16 -55 -8 -125 -19 -155
-23 -30 -5 -65 -12 -77 -16 -29 -9 -30 5 -2 55 24 42 7 38 263 60 65 5 121 12
125 15 7 8 177 1 210 -8z"/>
<path d="M1566 2443 c-28 -5 -28 -5 -7 -19 19 -14 23 -14 36 0 16 16 20 27 8
25 -5 -1 -21 -4 -37 -6z"/>
<path d="M1410 2401 c0 -5 -6 -16 -13 -23 -6 -7 -21 -30 -32 -50 -11 -21 -23
-38 -28 -38 -5 0 -5 -9 -2 -20 4 -12 1 -27 -5 -35 -10 -12 -9 -15 7 -15 31 0
81 29 88 51 10 30 0 33 -15 4 -15 -28 -35 -33 -44 -9 -8 20 1 34 20 34 14 0
18 10 15 43 -1 9 4 17 13 17 10 0 16 9 16 25 0 14 -4 25 -10 25 -5 0 -10 -4
-10 -9z"/>
<path d="M1467 2190 c3 -19 1 -30 -6 -30 -6 0 -11 -10 -11 -23 0 -14 -6 -24
-15 -24 -19 0 -19 3 2 38 13 22 14 32 6 40 -9 9 -16 2 -27 -25 -9 -21 -20 -35
-26 -31 -5 3 -10 2 -10 -2 0 -5 10 -13 23 -18 22 -10 26 -46 6 -53 -5 -2 -9
-10 -9 -18 0 -12 4 -13 23 -2 12 7 25 12 28 11 3 -1 4 9 1 23 -2 13 1 31 8 39
6 8 9 19 6 24 -4 5 -2 12 4 16 13 8 13 65 0 65 -5 0 -7 -13 -3 -30z"/>
<path d="M1508 2204 c-4 -3 -2 -17 4 -30 10 -20 7 -27 -15 -48 -16 -15 -24
-31 -21 -40 8 -20 24 -21 24 -1 0 7 6 18 13 22 23 15 42 63 31 81 -12 18 -27
25 -36 16z"/>
<path d="M1310 2175 c0 -18 24 -30 39 -21 16 10 1 36 -20 36 -10 0 -19 -7 -19
-15z"/>
<path d="M1605 2150 c-3 -5 -12 -7 -20 -3 -15 5 -21 -12 -7 -20 11 -7 52 11
52 23 0 13 -17 13 -25 0z"/>
<path d="M1540 2095 c0 -8 7 -15 15 -15 8 0 15 7 15 15 0 8 -7 15 -15 15 -8 0
-15 -7 -15 -15z"/>
</g>
</svg>
